<svg id="Capa_1" enable-background="new 0 0 512 512" height="512" viewBox="0 0 512 512" width="512" xmlns="http://www.w3.org/2000/svg"><g><path d="m512 256c0 141.38-114.62 256-256 256-42.01 0-81.66-10.12-116.64-28.06-14.716-7.543-.516-68.477-13.407-78.617-15.035-11.826-56.8 26.706-68.843 11.857-35.71-44.01-57.11-100.1-57.11-161.18 0-141.38 114.62-256 256-256s256 114.62 256 256z" fill="#ffd064"/><g><path d="m0 173.631h181.615v-130.323h-109.352c-39.91 0-72.263 32.353-72.263 72.263z" fill="#687780"/><path d="m124.378 43.304c-39.91 0-72.262 32.352-72.262 72.262v58.065h-52.116v-58.065c0-39.91 32.352-72.262 72.262-72.262z" fill="#546066"/><path d="m512 115.568v58.065h-181.624v-130.326h109.362c39.9 0 72.262 32.351 72.262 72.261z" fill="#687780"/><path d="m452.545 120.787-5.129 52.846h-117.04v-130.326h51.847c41.719 0 74.351 35.95 70.322 77.48z" fill="#546066"/></g><path d="m411.17 288.042h-310.34l-16.221-167.256c-4.028-41.532 28.615-77.495 70.342-77.495h202.098c41.727 0 74.37 35.962 70.342 77.495z" fill="#687780"/><path d="m168.88 120.792 16.22 167.25h-84.27l-16.22-167.25c-4.03-41.53 28.61-77.5 70.34-77.5h84.27c-41.72 0-74.37 35.97-70.34 77.5z" fill="#546066"/><path d="m180.33 288.04v137.64c0 26.84-17.08 49.69-40.97 58.26-31.88-16.34-59.88-39.18-82.25-66.76.55-3.94 1.5-7.91 2.88-11.86l40.84-117.28z" fill="#546066"/><path d="m184.403 487.567c-42.592 0-72.455-42.021-58.449-82.244l40.839-117.281h79.501v137.634c0 34.181-27.71 61.891-61.891 61.891z" fill="#687780"/><path d="m393.56 487.567c42.592 0 72.455-42.021 58.449-82.244l-40.839-117.281h-79.501v137.634c0 34.181 27.709 61.891 61.891 61.891z" fill="#546066"/><path d="m327.6 487.57c-4.48 0-8.85-.48-13.06-1.39-27.91-5.99-48.83-30.8-48.83-60.5v-137.64h79.5l40.84 117.28c14 40.23-15.86 82.25-58.45 82.25z" fill="#687780"/><path d="m314.54 486.18c-27.91-5.99-48.83-30.8-48.83-60.5v-137.64h63.8l19.38 126.6c4.57 29.83-10.25 57.61-34.35 71.54z" fill="#546066"/><path d="m255.486 495.548c-43.05 0-75.98-38.356-69.466-80.909l19.584-127.926h99.762l19.584 127.926c6.516 42.553-26.415 80.909-69.464 80.909z" fill="#687780"/><g fill="#546066"><path d="m273.45 493.238c-5.71 1.51-11.73 2.31-17.96 2.31-43.05 0-75.98-38.36-69.47-80.91l19.58-127.93h35.92l-19.59 127.93c-5.57 36.4 17.72 69.73 51.52 78.6z"/><path d="m406.242 302.986h-300.484c-10.738 0-19.444-8.705-19.444-19.444 0-10.738 8.705-19.444 19.444-19.444h300.484c10.738 0 19.444 8.705 19.444 19.444 0 10.739-8.706 19.444-19.444 19.444z"/><path d="m256 128.422c-40.772 0-73.824-33.052-73.824-73.824v-11.306h147.648v11.306c0 40.772-33.052 73.824-73.824 73.824z"/><path d="m244.179 196.926c0 13.591 11.017 24.608 24.608 24.608s24.608-11.017 24.608-24.608"/><path d="m290.07 196.926c0 13.591 11.017 24.608 24.608 24.608s24.608-11.017 24.608-24.608"/><path d="m201.662 153.363c0 13.591 11.017 24.608 24.608 24.608s24.608-11.017 24.608-24.608"/><path d="m348.597 233.399c0 13.591 11.017 24.608 24.608 24.608s24.608-11.017 24.608-24.608"/><path d="m314.013 121.052c0 13.591 11.017 24.608 24.608 24.608s24.608-11.017 24.608-24.608"/><path d="m166.99 220.702c0 13.591 11.017 24.608 24.608 24.608s24.608-11.017 24.608-24.608"/></g></g></svg>