<?xml version="1.0" encoding="utf-8"?>
<!-- Generator: Adobe Illustrator 16.0.0, SVG Export Plug-In . SVG Version: 6.00 Build 0)  -->
<!DOCTYPE svg PUBLIC "-//W3C//DTD SVG 1.1//EN" "http://www.w3.org/Graphics/SVG/1.1/DTD/svg11.dtd">
<svg xmlns="http://www.w3.org/2000/svg" xmlns:xlink="http://www.w3.org/1999/xlink" version="1.1" id="Layer_1" x="0px" y="0px" width="512" height="512" viewBox="0 0 512 512" enable-background="new 0 0 512 512" xml:space="preserve">
<g id="_x32_5._hammer_x2C__weapon_x2C__viking_x2C__culture_x2C__country_x2C__civilization">
	<g>
		<g>
			<path fill="#FFCE54" d="M37.676,457.354c-10.069,4.742-20.809-1.812-25.449,2.828c-10.912,10.912-10.92,28.666,0,39.586     c10.912,10.92,28.675,10.92,39.595,0c4.577-4.576-1.922-15.387,2.882-25.503l5.601-5.601L43.331,451.7L37.676,457.354z"/>
		</g>
	</g>
	<g opacity="0.5">
		<g>
			<path fill="#FFFFFF" d="M37.676,457.354c-10.069,4.742-20.809-1.812-25.449,2.828c-10.912,10.912-10.92,28.666,0,39.586     c0.969,0.969,2.047,1.75,3.117,2.547c-8.186-10.959-9.092-24.847,0.852-34.79c4.64-4.64,17.067,0.226,27.135-4.515     L37.676,457.354z"/>
		</g>
	</g>
	<g opacity="0.2">
		<g>
			<path d="M54.649,474.328c-4.741,10.069,1.812,20.81-2.827,25.448c-10.912,10.912-28.667,10.92-39.587,0     c-0.968-0.968-1.75-2.038-2.546-3.116c10.958,8.187,24.847,9.093,34.79-0.852c4.64-4.64-0.227-17.067,4.515-27.136     L54.649,474.328z"/>
		</g>
	</g>
	<g>
		<g>
			<path fill="#656D78" d="M383.245,100.472v0.008l-5.593,5.593l28.276,28.284l5.601-5.6l-0.008-0.008     c7.865-7.858,7.865-20.528,0.062-28.339C403.772,92.606,391.048,92.661,383.245,100.472z"/>
		</g>
	</g>
	<g opacity="0.3">
		<g>
			<path fill="#FFFFFF" d="M388.9,106.127c6.843-6.843,17.466-7.733,25.229-2.585c-0.727-1.109-1.578-2.156-2.546-3.132     c-7.812-7.803-20.536-7.749-28.339,0.062v0.008l5.655,5.655V106.127z"/>
		</g>
	</g>
	<g opacity="0.2">
		<g>
			<path d="M405.866,123.101c6.85-6.843,7.732-17.466,2.593-25.238c1.109,0.734,2.156,1.585,3.125,2.554     c7.811,7.811,7.748,20.527-0.055,28.339l-0.008-0.008l-5.655-5.655V123.101z"/>
		</g>
	</g>
	<g>
		<g>
			<polygon fill="#ED5565" points="77.293,462.972 253.175,287.09 224.899,258.81 49.009,434.688    "/>
		</g>
	</g>
	<g>
		<g>
			<polygon fill="#E6E9ED" points="338.003,32.609 190.952,179.66 162.668,128.756 287.153,4.044    "/>
		</g>
	</g>
	<g>
		<g>
			<polygon fill="#E6E9ED" points="338.003,32.609 190.952,179.66 162.668,128.756 287.153,4.044    "/>
		</g>
	</g>
	<g>
		<g>
			<path fill="#656D78" d="M349.313,258.841c3.172-3.171,8.194-3.116,11.373-0.062c3.047,3.172,3.109,8.197-0.062,11.369     c-3.108,3.108-8.139,3.054-11.248-0.062C346.197,267.03,346.205,261.95,349.313,258.841z"/>
		</g>
	</g>
	<g>
		<g>
			<path fill="#656D78" d="M383.308,224.847c3.109-3.109,8.193-3.117,11.311,0c3.108,3.109,3.108,8.202-0.062,11.373     c-3.109,3.109-8.201,3.109-11.248-0.062C380.129,233.104,380.137,228.019,383.308,224.847z"/>
		</g>
	</g>
	<g>
		<g>
			<path fill="#656D78" d="M417.239,190.908c3.108-3.109,8.201-3.109,11.318,0c3.108,3.108,3.108,8.201,0,11.311     c-3.117,3.116-8.21,3.116-11.318,0C414.13,199.109,414.13,194.024,417.239,190.908z"/>
		</g>
	</g>
	<g>
		<g>
			<polygon fill="#E6E9ED" points="507.956,224.847 383.245,349.328 332.349,321.052 479.399,174.005    "/>
		</g>
	</g>
	<g>
		<g>
			<path fill="#656D78" d="M253.16,151.384c3.171,3.046,3.171,8.139,0,11.31c-3.109,3.109-8.14,3.047-11.248-0.062     c-3.171-3.054-3.171-8.139-0.062-11.248C245.02,148.213,250.05,148.268,253.16,151.384z"/>
		</g>
	</g>
	<g>
		<g>
			<path fill="#656D78" d="M309.782,83.451c3.108-3.108,8.193-3.116,11.311,0c3.108,3.109,3.108,8.202,0,11.311     c-3.117,3.117-8.202,3.109-11.311,0C306.665,91.646,306.665,86.568,309.782,83.451z"/>
		</g>
	</g>
	<g>
		<g>
			<path fill="#656D78" d="M275.843,117.383c3.117-3.109,8.202-3.117,11.318,0c3.109,3.108,3.109,8.201-0.062,11.373     c-3.108,3.108-8.201,3.108-11.256-0.055C272.672,125.639,272.68,120.554,275.843,117.383z"/>
		</g>
	</g>
	<g>
		<g>
			<polygon fill="#FFCE54" points="355.032,162.632 348.236,189.893 327.817,169.475    "/>
		</g>
	</g>
	<g>
		<g>
			<polygon fill="#FFCE54" points="327.817,169.475 348.236,189.893 343.714,207.882 309.72,174.005    "/>
		</g>
	</g>
	<g>
		<g>
			<path fill="#FFCE54" d="M304.127,213.537c-18.778-18.786-18.778-49.093-0.062-67.808c18.778-18.786,49.093-18.786,67.933-0.062     c18.653,18.778,18.716,49.147,0,67.871C353.22,232.314,322.788,232.314,304.127,213.537z M309.72,174.005l33.994,33.877     l4.522-17.989l6.796-27.261l-27.215,6.843L309.72,174.005z"/>
		</g>
	</g>
	<g opacity="0.5">
		<g>
			<g>
				<path fill="#FFFFFF" d="M309.72,151.384c17.824-17.825,46.015-18.7,64.949-2.75c-0.859-1.008-1.727-2.008-2.672-2.968      c-18.84-18.723-49.154-18.723-67.933,0.062c-18.716,18.715-18.716,49.022,0.062,67.808c0.977,0.984,2.008,1.882,3.038,2.765      C291.083,197.423,291.926,169.178,309.72,151.384z"/>
			</g>
		</g>
	</g>
	<g opacity="0.2">
		<g>
			<g>
				<path d="M366.475,207.89c-17.825,17.824-46.015,18.699-64.948,2.741c0.851,1.016,1.718,2.016,2.671,2.977      c18.841,18.715,49.155,18.715,67.933-0.062c18.715-18.716,18.715-49.03-0.062-67.808c-0.977-0.992-2.008-1.882-3.046-2.765      C385.104,161.851,384.269,190.096,366.475,207.89z"/>
			</g>
		</g>
	</g>
	<g>
		<g>
			<path fill="#CCD1D9" d="M287.099,128.756c3.172-3.172,3.172-8.265,0.062-11.373c-3.116-3.117-8.201-3.109-11.318,0     c-3.163,3.171-3.171,8.256,0,11.318C278.897,131.864,283.99,131.864,287.099,128.756z M394.618,224.847     c-3.117-3.117-8.201-3.109-11.311,0c-3.171,3.171-3.179,8.256,0,11.31c3.047,3.172,8.139,3.172,11.248,0.062     C397.727,233.049,397.727,227.956,394.618,224.847z M321.093,94.762c3.108-3.108,3.108-8.201,0-11.311     c-3.117-3.116-8.202-3.108-11.311,0c-3.117,3.117-3.117,8.194,0,11.311C312.891,97.871,317.976,97.878,321.093,94.762z      M428.558,202.219c3.108-3.109,3.108-8.202,0-11.311c-3.117-3.109-8.21-3.109-11.318,0c-3.109,3.116-3.109,8.201,0,11.311     C420.348,205.335,425.44,205.335,428.558,202.219z M241.912,162.632c3.108,3.109,8.139,3.172,11.248,0.062     c3.171-3.171,3.171-8.264,0-11.31c-3.109-3.117-8.14-3.171-11.311,0C238.74,154.493,238.74,159.578,241.912,162.632z      M360.624,270.147c3.172-3.172,3.109-8.197,0.062-11.369c-3.179-3.054-8.201-3.108-11.373,0.062     c-3.108,3.109-3.116,8.189,0.062,11.244C352.485,273.201,357.516,273.256,360.624,270.147z M304.064,145.729     c-18.716,18.715-18.716,49.022,0.062,67.808c18.661,18.777,49.093,18.777,67.87,0c18.716-18.724,18.653-49.093,0-67.871     C353.157,126.943,322.843,126.943,304.064,145.729z M479.399,174.005L332.349,321.052l-11.256-45.304l-22.684-22.562     l-5.655,5.655c-3.108,3.109-8.201,3.109-11.311,0l-11.31,11.307l-5.656,5.655l-28.284-28.272l5.655-5.655l11.311-11.31     c-3.109-3.117-3.109-8.202,0-11.318l5.656-5.655l0.062-0.055l-22.622-22.629l-45.304-11.248L338.003,32.609l0.172-0.062     l11.201,45.249l84.836,84.836l45.242,11.193L479.399,174.005z"/>
		</g>
	</g>
	<g>
		<g>
			<polygon fill="#656D78" points="236.194,247.53 264.478,275.803 270.134,281.458 253.16,287.113 224.883,258.841      230.539,241.875    "/>
		</g>
	</g>
	<g>
		<g>
			<polygon fill="#656D78" points="71.669,479.921 32.021,440.39 49.048,434.672 77.325,462.956    "/>
		</g>
	</g>
	<g opacity="0.3">
		<g>
			<polygon fill="#FFFFFF" points="32.021,440.39 37.691,446.045 54.704,440.335 49.048,434.672    "/>
		</g>
	</g>
	<g opacity="0.2">
		<g>
			<polygon points="71.615,479.983 65.959,474.312 71.677,457.308 77.333,462.964    "/>
		</g>
	</g>
	<g opacity="0.3">
		<g>
			<polygon fill="#FFFFFF" points="230.539,241.875 236.194,247.538 230.484,264.547 224.829,258.896    "/>
		</g>
	</g>
	<g opacity="0.2">
		<g>
			<polygon points="270.134,281.466 264.47,275.811 247.458,281.521 253.113,287.176    "/>
		</g>
	</g>
	<g>
		<g>
			<path fill="#656D78" d="M270.188,9.988c-3.141-3.14-8.226-3.132-11.373,0l0,0l-90.492,90.491l0.008,0.008     c-3.102,3.125-3.102,8.163,0,11.295l-0.008,0.008l5.717,5.718L275.843,15.706l-5.545-5.554     C270.251,10.098,270.235,10.035,270.188,9.988z"/>
		</g>
	</g>
	<g>
		<g>
			<path fill="#656D78" d="M400.211,343.673c3.14,3.141,8.225,3.133,11.373,0l0,0l90.491-90.487l-0.008-0.008     c3.101-3.132,3.101-8.17,0-11.295l0.008-0.008l-5.718-5.718L394.556,337.955l5.546,5.554     C400.156,343.556,400.164,343.626,400.211,343.673z"/>
		</g>
	</g>
	<g opacity="0.2">
		<g>
			
				<rect x="376.279" y="285.894" transform="matrix(0.7071 -0.7071 0.7071 0.7071 -73.7037 401.8889)" width="144.011" height="8.042"/>
		</g>
	</g>
	<g opacity="0.2">
		<g>
			<polygon points="270.188,9.988 168.363,111.821 174.049,117.516 275.882,15.683    "/>
		</g>
	</g>
	<g opacity="0.2">
		<g>
			<polygon points="411.529,128.756 405.929,134.356 377.652,106.072 383.245,100.479    "/>
		</g>
	</g>
	<g opacity="0.3">
		<g>
			<polygon fill="#FFFFFF" points="224.938,270.093 60.281,434.75 54.61,429.087 219.275,264.43    "/>
		</g>
	</g>
	<g opacity="0.2">
		<g>
			<polygon points="247.567,292.722 82.91,457.378 77.239,451.716 241.904,287.059    "/>
		</g>
	</g>
	<g opacity="0.2">
		<g>
			
				<rect x="44.991" y="451.011" transform="matrix(0.7071 -0.7071 0.7071 0.7071 -313.0485 170.2536)" width="7.998" height="23.998"/>
		</g>
	</g>
	<g opacity="0.2">
		<g>
			
				<rect x="249.165" y="238.843" transform="matrix(0.7072 -0.707 0.707 0.7072 -108.8764 254.7948)" width="7.998" height="39.991"/>
		</g>
	</g>
	<g>
		<g>
			<polygon fill="#FFFFFF" points="166.777,136.145 294.668,8.262 287.388,4.177 162.723,128.842    "/>
		</g>
	</g>
	<g opacity="0.7">
		<g>
			<polygon fill="#FFFFFF" points="340.37,41.443 338.175,32.547 338.003,32.609 190.952,179.66 199.927,181.887    "/>
		</g>
	</g>
	<g opacity="0.2">
		<g>
			<polygon points="503.855,217.575 375.974,345.462 383.253,349.547 507.917,224.886    "/>
		</g>
	</g>
	<g opacity="0.2">
		<g>
			<polygon points="330.271,312.28 332.466,321.169 332.638,321.114 479.688,174.067 470.714,171.841    "/>
		</g>
	</g>
	<g opacity="0.2">
		<g>
			
				<rect x="61.999" y="426.025" transform="matrix(0.707 -0.7072 0.7072 0.707 -296.0971 177.3119)" width="7.921" height="40.016"/>
		</g>
	</g>
	<g opacity="0.2">
		<g>
			
				<rect x="232.261" y="255.77" transform="matrix(0.7071 -0.7071 0.7071 0.7071 -125.8151 247.8064)" width="7.92" height="40.011"/>
		</g>
	</g>
	<g>
		<g>
			<g>
				<path fill="#3A3847" d="M82.925,461.354c-1.023,0-2.047-0.391-2.828-1.172c-1.562-1.562-1.562-4.093,0-5.655l16.966-16.966      c1.562-1.562,4.093-1.562,5.655,0c1.562,1.562,1.562,4.094,0,5.655l-16.966,16.966      C84.972,460.964,83.949,461.354,82.925,461.354z"/>
			</g>
		</g>
		<g>
			<g>
				<path fill="#3A3847" d="M54.649,433.078c-1.023,0-2.046-0.391-2.827-1.172c-1.562-1.562-1.562-4.093,0-5.655l11.31-11.318      c1.562-1.562,4.093-1.562,5.655,0c1.562,1.562,1.562,4.094,0,5.656l-11.31,11.317C56.696,432.688,55.672,433.078,54.649,433.078      z"/>
			</g>
		</g>
		<g>
			<g>
				<path fill="#3A3847" d="M253.16,291.112c-1.023,0-2.047-0.391-2.828-1.172l-28.276-28.271c-1.562-1.562-1.562-4.094,0-5.656      c1.562-1.562,4.093-1.562,5.655,0l28.276,28.272c1.563,1.562,1.563,4.093,0,5.655      C255.206,290.722,254.183,291.112,253.16,291.112z"/>
			</g>
		</g>
		<g>
			<g>
				<path fill="#3A3847" d="M224.883,262.84c-0.422,0-0.844-0.062-1.266-0.203c-2.093-0.702-3.226-2.968-2.53-5.062l5.655-16.965      c0.703-2.093,2.968-3.218,5.062-2.531c2.093,0.703,3.226,2.968,2.53,5.062l-5.655,16.966      C228.117,261.778,226.555,262.84,224.883,262.84z"/>
			</g>
		</g>
		<g>
			<g>
				<path fill="#3A3847" d="M253.16,291.112c-1.672,0-3.234-1.062-3.797-2.734c-0.695-2.093,0.438-4.358,2.531-5.061l16.974-5.656      c2.108-0.694,4.358,0.438,5.062,2.531c0.694,2.094-0.438,4.358-2.531,5.062l-16.974,5.655      C254.003,291.05,253.581,291.112,253.16,291.112z"/>
			</g>
		</g>
		<g>
			<g>
				<path fill="#3A3847" d="M270.134,285.457c-1.023,0-2.047-0.391-2.828-1.172l-39.595-39.582c-1.562-1.562-1.562-4.093,0-5.655      c1.562-1.562,4.093-1.562,5.655,0l39.595,39.582c1.562,1.562,1.562,4.094,0,5.655      C272.18,285.066,271.156,285.457,270.134,285.457z"/>
			</g>
		</g>
		<g>
			<g>
				<path fill="#3A3847" d="M77.325,466.955c-1.023,0-2.047-0.391-2.828-1.172l-28.276-28.284c-1.562-1.562-1.562-4.093,0-5.655      c1.562-1.562,4.093-1.562,5.655,0l28.275,28.284c1.562,1.562,1.562,4.093,0,5.655C79.371,466.564,78.348,466.955,77.325,466.955      z"/>
			</g>
		</g>
		<g>
			<g>
				<path fill="#3A3847" d="M71.669,483.921c-0.422,0-0.844-0.062-1.266-0.203c-2.093-0.703-3.226-2.969-2.53-5.062l5.655-16.965      c0.711-2.094,2.984-3.219,5.062-2.531c2.093,0.703,3.226,2.969,2.53,5.062l-5.655,16.966      C74.903,482.858,73.341,483.921,71.669,483.921z"/>
			</g>
		</g>
		<g>
			<g>
				<path fill="#3A3847" d="M32.021,444.389c-1.671,0-3.234-1.055-3.789-2.726c-0.703-2.094,0.422-4.359,2.516-5.062l17.028-5.717      c2.093-0.734,4.367,0.43,5.062,2.515c0.703,2.094-0.422,4.358-2.515,5.062l-17.028,5.718      C32.872,444.326,32.442,444.389,32.021,444.389z"/>
			</g>
		</g>
		<g>
			<g>
				<path fill="#3A3847" d="M71.669,483.921c-1.023,0-2.047-0.391-2.82-1.164l-39.657-39.532c-1.562-1.562-1.562-4.093-0.008-5.655      c1.562-1.578,4.108-1.562,5.655-0.016l39.657,39.532c1.562,1.562,1.562,4.093,0.008,5.663      C73.724,483.53,72.693,483.921,71.669,483.921z"/>
			</g>
		</g>
		<g>
			<g>
				<path fill="#3A3847" d="M241.849,245.875c-1.023,0-2.047-0.391-2.828-1.171c-1.562-1.562-1.562-4.093,0-5.655l11.311-11.311      c1.562-1.562,4.093-1.562,5.655,0c1.563,1.562,1.563,4.093,0,5.655l-11.311,11.311      C243.896,245.484,242.872,245.875,241.849,245.875z"/>
			</g>
		</g>
		<g>
			<g>
				<path fill="#3A3847" d="M270.134,274.146c-1.023,0-2.047-0.391-2.828-1.171c-1.562-1.562-1.562-4.094,0-5.656l11.311-11.307      c1.562-1.562,4.093-1.562,5.655,0c1.562,1.562,1.562,4.094,0,5.656l-11.311,11.307      C272.18,273.756,271.156,274.146,270.134,274.146z"/>
			</g>
		</g>
		<g>
			<g>
				<path fill="#3A3847" d="M253.16,234.564c-1.023,0-2.047-0.391-2.828-1.172c-4.671-4.679-4.671-12.295,0-16.974      c1.562-1.562,4.093-1.562,5.655,0c1.563,1.555,1.563,4.085,0,5.655c-1.554,1.562-1.554,4.101,0,5.663      c1.563,1.57,1.563,4.101,0,5.655C255.206,234.174,254.183,234.564,253.16,234.564z"/>
			</g>
		</g>
		<g>
			<g>
				<path fill="#3A3847" d="M287.099,265.172c-3.069,0-6.146-1.172-8.482-3.503c-1.562-1.562-1.562-4.094,0-5.656      c1.562-1.562,4.093-1.562,5.655,0c1.562,1.562,4.093,1.562,5.655,0c1.562-1.562,4.093-1.562,5.655,0      c1.562,1.562,1.562,4.094,0,5.656C293.246,264,290.169,265.172,287.099,265.172z"/>
			</g>
		</g>
		<g>
			<g>
				<path fill="#3A3847" d="M258.815,240.219c-1.023,0-2.047-0.39-2.829-1.171l-5.655-5.655c-1.562-1.562-1.562-4.093,0-5.655      c1.562-1.562,4.093-1.562,5.655,0l5.656,5.655c1.562,1.562,1.562,4.093,0,5.655      C260.861,239.829,259.839,240.219,258.815,240.219z"/>
			</g>
		</g>
		<g>
			<g>
				<path fill="#3A3847" d="M281.443,262.84c-1.022,0-2.046-0.39-2.827-1.171l-5.655-5.656c-1.562-1.562-1.562-4.092,0-5.654      c1.562-1.562,4.093-1.562,5.655,0l5.655,5.654c1.562,1.562,1.562,4.094,0,5.656C283.49,262.45,282.467,262.84,281.443,262.84z"/>
			</g>
		</g>
		<g>
			<g>
				<path fill="#3A3847" d="M292.754,262.84c-1.023,0-2.046-0.39-2.827-1.171c-1.562-1.562-1.562-4.094,0-5.656l5.655-5.654      c1.562-1.562,4.093-1.562,5.655,0c1.562,1.562,1.562,4.093,0,5.654l-5.655,5.656C294.801,262.45,293.777,262.84,292.754,262.84z      "/>
			</g>
		</g>
		<g>
			<g>
				<path fill="#3A3847" d="M253.16,223.246c-1.023,0-2.047-0.391-2.828-1.172c-1.562-1.562-1.562-4.093,0-5.655l5.655-5.655      c1.563-1.562,4.093-1.562,5.656,0c1.562,1.562,1.562,4.093,0,5.655l-5.656,5.655      C255.206,222.855,254.183,223.246,253.16,223.246z"/>
			</g>
		</g>
		<g>
			<g>
				<path fill="#3A3847" d="M190.952,183.659c-1.023,0-2.046-0.391-2.828-1.171c-1.562-1.562-1.562-4.093,0-5.655L335.176,29.782      c1.562-1.562,4.093-1.562,5.655,0s1.562,4.093,0,5.655L193.78,182.488C192.999,183.269,191.975,183.659,190.952,183.659z"/>
			</g>
		</g>
		<g>
			<g>
				<path fill="#3A3847" d="M236.256,194.907c-0.312,0-0.641-0.039-0.961-0.117l-45.304-11.248      c-2.148-0.531-3.453-2.702-2.921-4.843c0.531-2.14,2.688-3.444,4.843-2.921l45.305,11.248c2.147,0.531,3.452,2.702,2.921,4.843      C239.685,193.689,238.053,194.907,236.256,194.907z"/>
			</g>
		</g>
		<g>
			<g>
				<path fill="#3A3847" d="M349.376,81.795c-1.796,0-3.429-1.218-3.882-3.039l-11.201-45.249c-0.078-0.312-0.117-0.641-0.117-0.961      c0-2.211,1.789-4.054,3.999-4.054c2.039,0,3.719,1.476,3.969,3.437l11.115,44.906c0.531,2.14-0.773,4.312-2.922,4.843      C350.017,81.756,349.688,81.795,349.376,81.795z"/>
			</g>
		</g>
		<g>
			<g>
				<path fill="#3A3847" d="M190.952,183.659c-1.398,0-2.765-0.742-3.5-2.054L159.169,130.7c-1.07-1.937-0.375-4.366,1.554-5.444      c1.914-1.046,4.358-0.375,5.444,1.555l28.284,50.905c1.07,1.937,0.375,4.366-1.555,5.444      C192.28,183.495,191.616,183.659,190.952,183.659z"/>
			</g>
		</g>
		<g>
			<g>
				<path fill="#3A3847" d="M162.668,132.755c-1.023,0-2.047-0.391-2.828-1.172c-1.562-1.554-1.562-4.093,0-5.655L284.326,1.217      c1.562-1.562,4.093-1.562,5.655,0c1.562,1.554,1.562,4.093,0,5.655L165.496,131.583      C164.715,132.364,163.691,132.755,162.668,132.755z"/>
			</g>
		</g>
		<g>
			<g>
				<path fill="#3A3847" d="M338.003,36.608c-0.663,0-1.335-0.164-1.96-0.516L285.192,7.528c-1.921-1.078-2.608-3.515-1.522-5.444      c1.086-1.921,3.499-2.625,5.444-1.523l50.85,28.565c1.922,1.078,2.609,3.515,1.523,5.444      C340.753,35.874,339.401,36.608,338.003,36.608z"/>
			</g>
		</g>
		<g>
			<g>
				<path fill="#3A3847" d="M264.532,223.191c-1.022,0-2.046-0.391-2.827-1.172l-28.276-28.284c-1.562-1.562-1.562-4.093,0-5.655      s4.093-1.562,5.655,0l28.277,28.284c1.562,1.562,1.562,4.093,0,5.655C266.579,222.801,265.556,223.191,264.532,223.191z"/>
			</g>
		</g>
		<g>
			<g>
				<path fill="#3A3847" d="M168.324,115.789c-1.047,0-2.102-0.414-2.883-1.227c-4.554-4.741-4.53-12.325,0.055-16.911      c1.562-1.562,4.093-1.562,5.655,0c1.562,1.562,1.562,4.093,0,5.655c-1.554,1.554-1.531,4.062,0.055,5.71      c1.531,1.593,1.484,4.125-0.109,5.655C170.315,115.422,169.323,115.789,168.324,115.789z"/>
			</g>
		</g>
		<g>
			<g>
				<path fill="#3A3847" d="M270.134,13.987c-1.023,0-2.047-0.39-2.828-1.171c-0.766-0.757-1.766-1.179-2.828-1.187h-0.008      c-1.062,0-2.062,0.422-2.827,1.187c-1.562,1.562-4.093,1.562-5.656,0c-1.562-1.562-1.562-4.093,0-5.655      c4.671-4.687,12.272-4.695,16.974,0c1.562,1.562,1.562,4.093,0,5.655C272.18,13.597,271.156,13.987,270.134,13.987z"/>
			</g>
		</g>
		<g>
			<g>
				<path fill="#3A3847" d="M168.324,104.479c-1.023,0-2.047-0.391-2.828-1.171c-1.562-1.562-1.562-4.093,0-5.655l90.491-90.491      c1.563-1.562,4.093-1.562,5.656,0c1.562,1.562,1.562,4.093,0,5.655l-90.492,90.491      C170.37,104.088,169.347,104.479,168.324,104.479z"/>
			</g>
		</g>
		<g>
			<g>
				<path fill="#3A3847" d="M332.349,325.052c-1.023,0-2.047-0.391-2.828-1.172c-1.562-1.562-1.562-4.094,0-5.655l147.051-147.047      c1.562-1.562,4.094-1.562,5.655,0c1.562,1.562,1.562,4.093,0,5.655L335.176,323.88      C334.395,324.661,333.372,325.052,332.349,325.052z"/>
			</g>
		</g>
		<g>
			<g>
				<path fill="#3A3847" d="M332.349,325.052c-1.797,0-3.43-1.219-3.883-3.039l-11.256-45.304c-0.53-2.141,0.773-4.312,2.922-4.843      c2.156-0.539,4.312,0.781,4.843,2.921l11.256,45.304c0.531,2.141-0.773,4.312-2.921,4.844      C332.989,325.013,332.661,325.052,332.349,325.052z"/>
			</g>
		</g>
		<g>
			<g>
				<path fill="#3A3847" d="M479.579,177.833c-0.102,0-0.203,0-0.297-0.008l-0.109-0.008l-45.922-11.303      c-2.14-0.531-3.452-2.695-2.921-4.843c0.531-2.14,2.695-3.445,4.843-2.921l45.242,11.193c2.202,0.156,3.577,2.023,3.421,4.226      C483.688,176.271,481.673,177.833,479.579,177.833z"/>
			</g>
		</g>
		<g>
			<g>
				<path fill="#3A3847" d="M383.245,353.327c-0.664,0-1.328-0.164-1.945-0.5l-50.896-28.275c-1.93-1.078-2.625-3.508-1.555-5.444      c1.078-1.938,3.516-2.609,5.444-1.555l50.897,28.276c1.929,1.078,2.624,3.507,1.555,5.443      C386.011,352.585,384.644,353.327,383.245,353.327z"/>
			</g>
		</g>
		<g>
			<g>
				<path fill="#3A3847" d="M383.245,353.327c-1.023,0-2.047-0.391-2.828-1.172c-1.562-1.562-1.562-4.101,0-5.654L505.129,222.02      c1.562-1.562,4.093-1.562,5.655,0s1.562,4.101,0,5.655l-124.711,124.48C385.292,352.937,384.269,353.327,383.245,353.327z"/>
			</g>
		</g>
		<g>
			<g>
				<path fill="#3A3847" d="M507.956,228.847c-1.397,0-2.749-0.734-3.483-2.039l-28.558-50.842c-1.085-1.93-0.398-4.367,1.523-5.444      c1.938-1.094,4.359-0.406,5.444,1.523l28.558,50.842c1.086,1.929,0.398,4.366-1.523,5.444      C509.292,228.683,508.62,228.847,507.956,228.847z"/>
			</g>
		</g>
		<g>
			<g>
				<path fill="#3A3847" d="M321.093,279.747c-1.023,0-2.039-0.391-2.82-1.164l-28.346-28.225c-1.562-1.562-1.562-4.093,0-5.655      c1.562-1.562,4.093-1.562,5.655,0l28.33,28.21c1.57,1.554,1.57,4.093,0.016,5.654      C323.147,279.356,322.116,279.747,321.093,279.747z"/>
			</g>
		</g>
		<g>
			<g>
				<path fill="#3A3847" d="M405.913,350c-0.039,0-0.086-0.008-0.125-0.008c-3.203-0.031-6.187-1.312-8.396-3.608      c-1.531-1.594-1.484-4.125,0.108-5.656c1.586-1.515,4.116-1.491,5.655,0.109c0.719,0.742,1.562,1.156,2.758,1.164      c1.055,0,2.047-0.414,2.788-1.156c1.562-1.562,4.093-1.562,5.655,0c1.562,1.57,1.562,4.102,0,5.656      C412.091,348.758,409.1,350,405.913,350z"/>
			</g>
		</g>
		<g>
			<g>
				<path fill="#3A3847" d="M502.083,257.122c-1.023,0-2.047-0.391-2.828-1.171c-1.562-1.562-1.562-4.093,0-5.655      c0.734-0.734,1.141-1.719,1.133-2.766c-0.016-1.062-0.438-2.07-1.195-2.827c-1.562-1.562-1.562-4.093,0-5.655      c1.562-1.562,4.093-1.562,5.655,0c4.679,4.679,4.702,12.263,0.062,16.903C504.129,256.731,503.106,257.122,502.083,257.122z"/>
			</g>
		</g>
		<g>
			<g>
				<path fill="#3A3847" d="M411.529,347.672c-1.023,0-2.047-0.391-2.828-1.171c-1.562-1.562-1.562-4.094,0-5.656l90.554-90.549      c1.562-1.562,4.093-1.562,5.655,0c1.562,1.562,1.562,4.093,0,5.655l-90.554,90.55      C413.575,347.281,412.552,347.672,411.529,347.672z"/>
			</g>
		</g>
		<g>
			<g>
				<path fill="#3A3847" d="M411.529,132.755c-1.023,0-2.047-0.391-2.828-1.172c-1.562-1.562-1.562-4.093,0-5.655      c3.047-3.046,4.726-7.084,4.733-11.373c0.008-4.272-1.655-8.287-4.679-11.31c-6.241-6.241-16.411-6.217-22.683,0.062      c-1.562,1.562-4.094,1.562-5.656,0c-1.562-1.562-1.562-4.093,0-5.655c9.39-9.389,24.652-9.405,33.994-0.062      c4.538,4.531,7.03,10.561,7.022,16.981c-0.008,6.413-2.523,12.459-7.077,17.013      C413.575,132.364,412.552,132.755,411.529,132.755z"/>
			</g>
		</g>
		<g>
			<g>
				<path fill="#3A3847" d="M434.212,166.631c-1.023,0-2.046-0.391-2.827-1.171l-84.836-84.836c-1.562-1.562-1.562-4.093,0-5.655      c1.562-1.562,4.093-1.562,5.655,0l84.836,84.836c1.562,1.562,1.562,4.093,0,5.655      C436.259,166.241,435.235,166.631,434.212,166.631z"/>
			</g>
		</g>
		<g>
			<g>
				<path fill="#3A3847" d="M338.019,231.619c-13.903,0-26.947-5.421-36.727-15.263c-20.262-20.27-20.285-53.225-0.055-73.455      c9.842-9.85,22.909-15.271,36.797-15.271c13.857,0,26.918,5.397,36.783,15.2c20.215,20.348,20.207,53.326,0.008,73.533      C364.991,226.198,351.915,231.619,338.019,231.619z M338.034,135.629c-11.747,0-22.808,4.593-31.143,12.928      c-17.113,17.114-17.082,45,0.062,62.152c8.28,8.327,19.31,12.912,31.064,12.912c11.764,0,22.824-4.585,31.151-12.912      c17.091-17.098,17.091-45.015-0.008-62.223C360.827,140.199,349.767,135.629,338.034,135.629z"/>
			</g>
		</g>
		<g>
			<g>
				<path fill="#3A3847" d="M190.952,149.729c-0.422,0-0.852-0.062-1.273-0.211c-2.094-0.695-3.219-2.969-2.516-5.062l5.71-17.028      c0.703-2.086,2.976-3.25,5.062-2.515c2.094,0.695,3.218,2.968,2.515,5.062l-5.709,17.028      C194.186,148.674,192.624,149.729,190.952,149.729z"/>
			</g>
		</g>
		<g>
			<g>
				<path fill="#3A3847" d="M196.662,132.7c-1.679,0-3.241-1.062-3.796-2.742c-0.695-2.093,0.445-4.359,2.539-5.054l16.911-5.601      c2.085-0.719,4.358,0.445,5.054,2.539c0.695,2.093-0.445,4.358-2.539,5.054l-16.911,5.601      C197.505,132.638,197.076,132.7,196.662,132.7z"/>
			</g>
		</g>
		<g>
			<g>
				<path fill="#3A3847" d="M213.573,127.1c-0.422,0-0.844-0.062-1.265-0.203c-2.093-0.703-3.226-2.968-2.531-5.062l5.655-16.966      c0.711-2.093,2.983-3.21,5.062-2.53c2.093,0.703,3.226,2.968,2.53,5.062l-5.655,16.965      C216.807,126.037,215.245,127.1,213.573,127.1z"/>
			</g>
		</g>
		<g>
			<g>
				<path fill="#3A3847" d="M219.228,110.134c-1.671,0-3.233-1.062-3.796-2.733c-0.695-2.094,0.438-4.359,2.53-5.062l16.966-5.655      c2.109-0.695,4.358,0.438,5.062,2.53c0.695,2.094-0.438,4.359-2.531,5.062l-16.965,5.655      C220.072,110.071,219.65,110.134,219.228,110.134z"/>
			</g>
		</g>
		<g>
			<g>
				<path fill="#3A3847" d="M236.209,104.432c-1.023,0-2.039-0.383-2.812-1.156c-1.25-1.25-1.515-3.093-0.781-4.578l5.499-16.512      c0.71-2.085,2.976-3.226,5.062-2.531c2.093,0.703,3.226,2.968,2.531,5.062l-5.655,16.966c-0.195,0.586-0.531,1.125-0.969,1.562      C238.295,104.033,237.249,104.432,236.209,104.432z"/>
			</g>
		</g>
		<g>
			<g>
				<path fill="#3A3847" d="M241.912,87.451c-1.672,0-3.234-1.062-3.796-2.734c-0.695-2.093,0.438-4.358,2.531-5.062L257.612,74      c2.102-0.688,4.358,0.438,5.062,2.531c0.695,2.093-0.438,4.359-2.531,5.062l-16.966,5.655      C242.755,87.388,242.333,87.451,241.912,87.451z"/>
			</g>
		</g>
		<g>
			<g>
				<path fill="#3A3847" d="M258.878,81.795c-0.422,0-0.844-0.062-1.266-0.203c-2.094-0.703-3.227-2.968-2.532-5.062l5.656-16.973      c0.703-2.094,2.977-3.219,5.062-2.531c2.094,0.703,3.227,2.969,2.531,5.062l-5.655,16.974      C262.111,80.733,260.549,81.795,258.878,81.795z"/>
			</g>
		</g>
		<g>
			<g>
				<path fill="#3A3847" d="M264.532,64.822c-1.671,0-3.233-1.062-3.796-2.734c-0.695-2.093,0.438-4.358,2.531-5.062l16.974-5.655      c2.093-0.695,4.358,0.438,5.061,2.531c0.695,2.093-0.437,4.358-2.53,5.062l-16.974,5.655      C265.376,64.76,264.954,64.822,264.532,64.822z"/>
			</g>
		</g>
		<g>
			<g>
				<path fill="#3A3847" d="M281.506,59.167c-0.421,0-0.843-0.062-1.265-0.203c-2.094-0.703-3.227-2.968-2.531-5.062l5.655-16.966      c0.703-2.093,2.983-3.218,5.062-2.531c2.094,0.703,3.227,2.968,2.531,5.062l-5.656,16.965      C284.74,58.104,283.178,59.167,281.506,59.167z"/>
			</g>
		</g>
		<g>
			<g>
				<path fill="#3A3847" d="M287.161,42.201c-1.672,0-3.233-1.062-3.796-2.734c-0.695-2.093,0.438-4.358,2.53-5.062l16.966-5.655      c2.094-0.695,4.358,0.438,5.062,2.531c0.695,2.094-0.438,4.358-2.53,5.062l-16.966,5.655      C288.005,42.139,287.583,42.201,287.161,42.201z"/>
			</g>
		</g>
		<g>
			<g>
				<path fill="#3A3847" d="M473.854,228.901c-0.422,0-0.844-0.062-1.266-0.203c-2.093-0.703-3.226-2.969-2.53-5.062l5.654-16.966      c0.711-2.094,2.977-3.218,5.062-2.531c2.093,0.703,3.226,2.968,2.53,5.062l-5.655,16.965      C477.087,227.839,475.524,228.901,473.854,228.901z"/>
			</g>
		</g>
		<g>
			<g>
				<path fill="#3A3847" d="M456.888,234.557c-1.672,0-3.233-1.062-3.796-2.734c-0.695-2.093,0.438-4.358,2.53-5.062l16.966-5.655      c2.102-0.695,4.358,0.438,5.062,2.531c0.695,2.093-0.438,4.358-2.53,5.062l-16.966,5.655      C457.731,234.494,457.31,234.557,456.888,234.557z"/>
			</g>
		</g>
		<g>
			<g>
				<path fill="#3A3847" d="M451.232,251.522c-0.422,0-0.844-0.062-1.265-0.203c-2.094-0.703-3.227-2.968-2.531-5.062l5.655-16.965      c0.703-2.094,2.976-3.219,5.062-2.531c2.094,0.703,3.226,2.968,2.531,5.062l-5.656,16.966      C454.466,250.46,452.904,251.522,451.232,251.522z"/>
			</g>
		</g>
		<g>
			<g>
				<path fill="#3A3847" d="M434.267,257.177c-1.671,0-3.233-1.062-3.796-2.733c-0.695-2.094,0.438-4.358,2.531-5.062l16.966-5.655      c2.101-0.695,4.357,0.438,5.061,2.531c0.695,2.093-0.438,4.359-2.53,5.062l-16.966,5.655      C435.11,257.114,434.688,257.177,434.267,257.177z"/>
			</g>
		</g>
		<g>
			<g>
				<path fill="#3A3847" d="M428.612,274.139c-0.414,0-0.836-0.062-1.258-0.203c-2.094-0.695-3.234-2.952-2.539-5.054l5.593-16.899      c0.195-0.594,0.523-1.133,0.969-1.57c1.57-1.562,4.132-1.586,5.687-0.031c1.242,1.242,1.516,3.085,0.789,4.569l-5.444,16.446      C431.854,273.077,430.291,274.139,428.612,274.139z"/>
			</g>
		</g>
		<g>
			<g>
				<path fill="#3A3847" d="M411.639,279.802c-1.672,0-3.234-1.055-3.796-2.733c-0.695-2.094,0.437-4.358,2.53-5.062l16.974-5.663      c2.101-0.695,4.358,0.429,5.062,2.53c0.695,2.094-0.438,4.358-2.531,5.062l-16.974,5.663      C412.481,279.739,412.06,279.802,411.639,279.802z"/>
			</g>
		</g>
		<g>
			<g>
				<path fill="#3A3847" d="M405.983,296.768c-0.422,0-0.844-0.062-1.266-0.203c-2.094-0.703-3.227-2.968-2.531-5.062l5.656-16.966      c0.702-2.085,2.983-3.226,5.061-2.53c2.094,0.703,3.227,2.968,2.531,5.062l-5.655,16.966      C409.217,295.705,407.655,296.768,405.983,296.768z"/>
			</g>
		</g>
		<g>
			<g>
				<path fill="#3A3847" d="M389.018,302.423c-1.672,0-3.233-1.062-3.796-2.734c-0.695-2.093,0.438-4.358,2.53-5.062l16.966-5.655      c2.094-0.688,4.358,0.438,5.062,2.531c0.695,2.094-0.438,4.358-2.53,5.062l-16.966,5.655      C389.861,302.36,389.439,302.423,389.018,302.423z"/>
			</g>
		</g>
		<g>
			<g>
				<path fill="#3A3847" d="M383.3,319.45c-0.422,0-0.852-0.062-1.273-0.21c-2.093-0.703-3.218-2.969-2.515-5.062l5.718-17.028      c0.695-2.094,2.976-3.241,5.062-2.516c2.093,0.703,3.218,2.969,2.515,5.062l-5.718,17.028      C386.534,318.396,384.972,319.45,383.3,319.45z"/>
			</g>
		</g>
		<g>
			<g>
				<path fill="#3A3847" d="M366.334,325.106c-1.671,0-3.233-1.062-3.796-2.734c-0.695-2.094,0.438-4.358,2.531-5.062l16.965-5.655      c2.102-0.695,4.359,0.438,5.062,2.531c0.695,2.093-0.437,4.358-2.53,5.062l-16.966,5.655      C367.178,325.044,366.756,325.106,366.334,325.106z"/>
			</g>
		</g>
		<g>
			<g>
				<path fill="#3A3847" d="M309.72,178.004c-1.797,0-3.422-1.21-3.882-3.03c-0.531-2.141,0.765-4.312,2.913-4.851l45.305-11.373      c2.155-0.539,4.312,0.766,4.858,2.906c0.53,2.14-0.766,4.32-2.906,4.858l-45.319,11.373      C310.368,177.965,310.04,178.004,309.72,178.004z"/>
			</g>
		</g>
		<g>
			<g>
				<path fill="#3A3847" d="M343.714,211.881c-0.32,0-0.648-0.039-0.977-0.117c-2.141-0.539-3.438-2.718-2.906-4.858l11.318-45.242      c0.531-2.148,2.664-3.445,4.851-2.914c2.141,0.539,3.444,2.703,2.914,4.851l-11.318,45.257      C347.135,210.67,345.51,211.881,343.714,211.881z"/>
			</g>
		</g>
		<g>
			<g>
				<path fill="#3A3847" d="M343.714,211.881c-1.023,0-2.039-0.391-2.82-1.164l-33.994-33.876c-1.569-1.562-1.569-4.093-0.016-5.655      c1.562-1.578,4.094-1.562,5.656-0.016l33.993,33.876c1.57,1.562,1.57,4.093,0.016,5.655      C345.768,211.49,344.736,211.881,343.714,211.881z"/>
			</g>
		</g>
		<g>
			<g>
				<path fill="#3A3847" d="M354.97,200.625c-1.023,0-2.047-0.391-2.828-1.172l-33.939-33.931c-1.562-1.562-1.562-4.093,0-5.655      c1.562-1.562,4.094-1.562,5.655,0l33.939,33.931c1.562,1.562,1.562,4.093,0,5.655      C357.016,200.234,355.992,200.625,354.97,200.625z"/>
			</g>
		</g>
		<g>
			<g>
				<path fill="#3A3847" d="M247.598,168.998c-3.211,0-6.233-1.258-8.515-3.538c-2.241-2.164-3.53-5.147-3.554-8.351      c-0.031-3.233,1.211-6.272,3.491-8.553c4.546-4.554,12.436-4.538,16.966,0c2.235,2.148,3.516,5.116,3.547,8.318      c0.039,3.258-1.227,6.327-3.547,8.647C253.745,167.764,250.769,168.998,247.598,168.998z M247.504,153.024      c-1.062,0-2.062,0.422-2.828,1.188c-0.75,0.75-1.164,1.757-1.148,2.827c0.008,1.039,0.422,2,1.156,2.711      c1.602,1.601,4.156,1.601,5.647,0.117c0.789-0.789,1.219-1.828,1.203-2.914c-0.008-1.031-0.414-1.983-1.148-2.687      C249.566,153.446,248.566,153.024,247.504,153.024z"/>
			</g>
		</g>
		<g>
			<g>
				<path fill="#3A3847" d="M281.475,135.083c-3.241,0-6.265-1.281-8.506-3.601c-2.195-2.117-3.468-5.093-3.499-8.279      c-0.031-3.258,1.226-6.319,3.546-8.647c4.53-4.53,12.458-4.515,16.974,0c4.679,4.679,4.647,12.318-0.062,17.028      C287.669,133.841,284.67,135.083,281.475,135.083z M281.506,119.046c-1.077,0-2.085,0.414-2.835,1.164      c-0.789,0.789-1.211,1.82-1.203,2.914c0.008,1.031,0.422,1.991,1.156,2.702c1.656,1.695,4.171,1.586,5.647,0.102      c1.593-1.593,1.624-4.155,0.062-5.718C283.584,119.46,282.576,119.046,281.506,119.046z"/>
			</g>
		</g>
		<g>
			<g>
				<path fill="#3A3847" d="M315.438,101.097c-3.21,0-6.226-1.25-8.483-3.507c-4.679-4.679-4.679-12.287,0-16.965      c4.516-4.515,12.451-4.515,16.966,0c2.258,2.257,3.499,5.272,3.499,8.482c0,3.21-1.241,6.226-3.499,8.483      C321.663,99.847,318.647,101.097,315.438,101.097z M315.438,85.115c-1.07,0-2.078,0.414-2.827,1.164      c-1.562,1.562-1.562,4.093,0,5.655c1.499,1.499,4.155,1.499,5.654,0c1.562-1.562,1.562-4.093,0-5.655      C317.515,85.529,316.508,85.115,315.438,85.115z"/>
			</g>
		</g>
		<g>
			<g>
				<path fill="#3A3847" d="M355.056,276.451c-3.211,0-6.234-1.258-8.507-3.538c-2.241-2.156-3.53-5.133-3.562-8.335      c-0.031-3.237,1.211-6.276,3.499-8.565c4.522-4.53,12.334-4.569,16.974-0.116c4.741,4.929,4.687,12.384-0.008,17.079      C361.21,275.217,358.234,276.451,355.056,276.451z M355.001,260.474c-1.07,0-2.086,0.422-2.859,1.195      c-0.758,0.758-1.164,1.757-1.156,2.823c0.008,1.039,0.422,2,1.164,2.71c1.633,1.633,4.155,1.594,5.647,0.117      c1.585-1.585,1.593-4.12,0.008-5.768C357.117,260.896,356.086,260.474,355.001,260.474z"/>
			</g>
		</g>
		<g>
			<g>
				<path fill="#3A3847" d="M388.939,242.547c-3.249,0-6.28-1.289-8.515-3.616c-2.187-2.094-3.468-5.069-3.499-8.264      c-0.031-3.25,1.234-6.327,3.554-8.647c4.516-4.515,12.451-4.515,16.967,0c2.265,2.265,3.507,5.288,3.491,8.506      c-0.008,3.21-1.273,6.241-3.554,8.522C395.126,241.305,392.134,242.547,388.939,242.547z M388.963,226.511      c-1.07,0-2.078,0.414-2.827,1.164c-0.789,0.789-1.219,1.828-1.211,2.914c0.008,1.031,0.422,1.984,1.156,2.687      c1.655,1.718,4.163,1.601,5.646,0.117c0.781-0.781,1.211-1.812,1.219-2.898c0-1.07-0.406-2.07-1.156-2.82      S390.033,226.511,388.963,226.511z"/>
			</g>
		</g>
		<g>
			<g>
				<path fill="#3A3847" d="M422.894,208.553c-3.21,0-6.225-1.242-8.482-3.507c-4.671-4.671-4.671-12.279,0-16.965      c4.515-4.515,12.443-4.515,16.974,0c2.257,2.257,3.499,5.272,3.499,8.483c0,3.21-1.242,6.226-3.499,8.482      C429.12,207.312,426.104,208.553,422.894,208.553z M422.894,192.58c-1.077,0-2.077,0.406-2.827,1.156      c-1.554,1.562-1.554,4.101,0,5.655c1.508,1.508,4.171,1.492,5.663,0c1.562-1.562,1.562-4.093,0-5.655      C424.979,192.986,423.972,192.58,422.894,192.58z"/>
			</g>
		</g>
		<g>
			<g>
				<path fill="#3A3847" d="M236.256,194.907c-1.023,0-2.047-0.391-2.828-1.171c-1.562-1.562-1.562-4.093,0-5.655l11.248-11.248      c1.562-1.562,4.093-1.562,5.655,0c1.562,1.562,1.562,4.093,0,5.655l-11.248,11.248      C238.303,194.517,237.28,194.907,236.256,194.907z"/>
			</g>
		</g>
		<g>
			<g>
				<path fill="#3A3847" d="M338.058,93.106c-1.022,0-2.046-0.391-2.827-1.171c-1.562-1.562-1.562-4.093,0-5.655l11.318-11.311      c1.562-1.562,4.093-1.562,5.655,0c1.562,1.562,1.562,4.093,0,5.655l-11.318,11.311      C340.104,92.715,339.081,93.106,338.058,93.106z"/>
			</g>
		</g>
		<g>
			<g>
				<path fill="#3A3847" d="M422.894,177.942c-1.022,0-2.046-0.391-2.827-1.172c-1.562-1.562-1.562-4.093,0-5.655l11.318-11.311      c1.562-1.562,4.093-1.562,5.655,0c1.562,1.562,1.562,4.093,0,5.655l-11.318,11.31      C424.94,177.551,423.917,177.942,422.894,177.942z"/>
			</g>
		</g>
		<g>
			<g>
				<path fill="#3A3847" d="M321.093,279.747c-1.023,0-2.047-0.391-2.828-1.172c-1.562-1.562-1.562-4.093,0-5.654l11.256-11.252      c1.562-1.562,4.094-1.562,5.655,0c1.562,1.562,1.562,4.089,0,5.65l-11.256,11.256      C323.14,279.356,322.116,279.747,321.093,279.747z"/>
			</g>
		</g>
		<g>
			<g>
				<path fill="#3A3847" d="M32.021,511.962c-8.553,0-16.591-3.327-22.621-9.365c-12.475-12.475-12.475-32.768,0-45.242      c3.593-3.593,8.646-3.077,13.513-2.569c4.382,0.445,8.881,0.914,13.061-1.047c1.976-0.937,4.382-0.086,5.319,1.914      c0.945,1.999,0.086,4.382-1.914,5.319c-6.187,2.905-12.349,2.266-17.286,1.773c-3.007-0.328-6.131-0.641-7.037,0.266      c-9.358,9.357-9.358,24.573,0,33.931c9.045,9.045,24.894,9.045,33.938,0c0.867-0.867,0.539-4.101,0.25-6.96      c-0.5-4.983-1.117-11.186,1.852-17.434c0.945-1.992,3.343-2.836,5.327-1.891c1.992,0.945,2.843,3.328,1.89,5.327      c-2.007,4.233-1.546,8.787-1.109,13.2c0.492,4.852,0.992,9.866-2.555,13.412C48.611,508.635,40.574,511.962,32.021,511.962z"/>
			</g>
		</g>
		<g>
			<g>
				<path fill="#3A3847" d="M99.891,444.389c-0.766,0-1.539-0.219-2.219-0.672l-33.931-22.628c-1.835-1.227-2.335-3.711-1.109-5.547      c1.234-1.843,3.718-2.327,5.546-1.108l33.931,22.628c1.836,1.227,2.336,3.711,1.109,5.546      C102.445,443.764,101.18,444.389,99.891,444.389z"/>
			</g>
		</g>
		<g>
			<g>
				<path fill="#3A3847" d="M105.546,438.733c-1.023,0-2.046-0.391-2.828-1.172c-1.562-1.562-1.562-4.093,0-5.655l11.311-11.317      c1.562-1.562,4.093-1.562,5.655,0c1.562,1.562,1.562,4.093,0,5.654l-11.311,11.318      C107.592,438.343,106.569,438.733,105.546,438.733z"/>
			</g>
		</g>
		<g>
			<g>
				<path fill="#3A3847" d="M71.615,416.104c-1.023,0-2.047-0.391-2.828-1.172c-1.562-1.562-1.562-4.093,0-5.654l11.31-11.311      c1.562-1.562,4.093-1.562,5.655,0c1.562,1.562,1.562,4.093,0,5.655l-11.31,11.31C73.661,415.714,72.638,416.104,71.615,416.104z      "/>
			</g>
		</g>
		<g>
			<g>
				<path fill="#3A3847" d="M116.856,427.415c-0.766,0-1.539-0.219-2.218-0.672l-33.932-22.621c-1.835-1.226-2.335-3.71-1.109-5.545      c1.234-1.844,3.718-2.32,5.546-1.109l33.931,22.621c1.836,1.226,2.335,3.71,1.109,5.545      C119.411,426.79,118.145,427.415,116.856,427.415z"/>
			</g>
		</g>
		<g>
			<g>
				<path fill="#3A3847" d="M122.511,421.76c-1.023,0-2.046-0.391-2.827-1.171c-1.562-1.562-1.562-4.094,0-5.656l11.318-11.31      c1.562-1.562,4.093-1.562,5.655,0c1.562,1.562,1.562,4.093,0,5.655l-11.318,11.311      C124.558,421.369,123.535,421.76,122.511,421.76z"/>
			</g>
		</g>
		<g>
			<g>
				<path fill="#3A3847" d="M88.581,399.14c-1.023,0-2.047-0.391-2.828-1.172c-1.562-1.562-1.562-4.094,0-5.655l11.311-11.311      c1.562-1.562,4.093-1.562,5.655,0c1.562,1.562,1.562,4.093,0,5.655l-11.311,11.311C90.627,398.749,89.604,399.14,88.581,399.14z      "/>
			</g>
		</g>
		<g>
			<g>
				<path fill="#3A3847" d="M133.83,410.45c-0.766,0-1.539-0.219-2.218-0.672l-33.939-22.621c-1.835-1.227-2.335-3.711-1.109-5.546      c1.234-1.844,3.726-2.328,5.546-1.109l33.939,22.621c1.835,1.226,2.335,3.71,1.109,5.546      C136.384,409.825,135.119,410.45,133.83,410.45z"/>
			</g>
		</g>
		<g>
			<g>
				<path fill="#3A3847" d="M139.485,404.794c-1.023,0-2.046-0.391-2.827-1.171c-1.562-1.562-1.562-4.093,0-5.655l11.31-11.311      c1.562-1.562,4.093-1.562,5.655,0s1.562,4.093,0,5.655l-11.311,11.311C141.532,404.403,140.508,404.794,139.485,404.794z"/>
			</g>
		</g>
		<g>
			<g>
				<path fill="#3A3847" d="M105.546,382.174c-1.023,0-2.046-0.391-2.828-1.172c-1.562-1.562-1.562-4.093,0-5.655l11.311-11.311      c1.562-1.562,4.093-1.562,5.655,0c1.562,1.562,1.562,4.094,0,5.655l-11.311,11.311      C107.592,381.783,106.569,382.174,105.546,382.174z"/>
			</g>
		</g>
		<g>
			<g>
				<path fill="#3A3847" d="M150.795,393.483c-0.766,0-1.539-0.218-2.218-0.671l-33.939-22.621c-1.836-1.227-2.336-3.71-1.109-5.546      c1.234-1.844,3.718-2.328,5.546-1.109l33.939,22.621c1.835,1.227,2.335,3.71,1.109,5.546      C153.35,392.859,152.084,393.483,150.795,393.483z"/>
			</g>
		</g>
		<g>
			<g>
				<path fill="#3A3847" d="M156.451,387.829c-1.023,0-2.047-0.391-2.828-1.172c-1.562-1.562-1.562-4.093,0-5.655l11.31-11.311      c1.562-1.562,4.093-1.562,5.655,0c1.562,1.562,1.562,4.093,0,5.655l-11.31,11.311      C158.497,387.438,157.474,387.829,156.451,387.829z"/>
			</g>
		</g>
		<g>
			<g>
				<path fill="#3A3847" d="M122.511,365.2c-1.023,0-2.046-0.391-2.827-1.172c-1.562-1.562-1.562-4.093,0-5.655l11.318-11.31      c1.562-1.562,4.093-1.562,5.655,0c1.562,1.562,1.562,4.093,0,5.654l-11.318,11.311C124.558,364.81,123.535,365.2,122.511,365.2z      "/>
			</g>
		</g>
		<g>
			<g>
				<path fill="#3A3847" d="M167.761,376.519c-0.766,0-1.539-0.219-2.219-0.672l-33.931-22.629c-1.836-1.227-2.336-3.71-1.109-5.546      c1.234-1.843,3.726-2.319,5.546-1.108l33.931,22.628c1.835,1.227,2.335,3.71,1.109,5.546      C170.315,375.894,169.05,376.519,167.761,376.519z"/>
			</g>
		</g>
		<g>
			<g>
				<path fill="#3A3847" d="M173.417,370.863c-1.023,0-2.047-0.391-2.828-1.172c-1.562-1.562-1.562-4.093,0-5.655l11.311-11.318      c1.562-1.562,4.093-1.562,5.655,0c1.562,1.562,1.562,4.094,0,5.655l-11.311,11.318      C175.462,370.473,174.439,370.863,173.417,370.863z"/>
			</g>
		</g>
		<g>
			<g>
				<path fill="#3A3847" d="M139.485,348.234c-1.023,0-2.046-0.391-2.827-1.171c-1.562-1.562-1.562-4.094,0-5.656l11.31-11.311      c1.562-1.562,4.093-1.562,5.655,0c1.562,1.562,1.562,4.094,0,5.656l-11.311,11.311      C141.532,347.844,140.508,348.234,139.485,348.234z"/>
			</g>
		</g>
		<g>
			<g>
				<path fill="#3A3847" d="M184.727,359.545c-0.765,0-1.539-0.219-2.218-0.672l-33.931-22.62c-1.835-1.227-2.335-3.711-1.109-5.547      c1.234-1.843,3.726-2.327,5.545-1.108l33.931,22.62c1.836,1.227,2.336,3.711,1.109,5.547      C187.281,358.92,186.015,359.545,184.727,359.545z"/>
			</g>
		</g>
		<g>
			<g>
				<path fill="#3A3847" d="M190.39,353.89c-1.023,0-2.046-0.391-2.828-1.172c-1.562-1.562-1.562-4.093,0-5.654l11.311-11.311      c1.562-1.562,4.093-1.562,5.655,0c1.562,1.562,1.562,4.093,0,5.654l-11.311,11.311      C192.436,353.499,191.413,353.89,190.39,353.89z"/>
			</g>
		</g>
		<g>
			<g>
				<path fill="#3A3847" d="M156.451,331.269c-1.023,0-2.047-0.391-2.828-1.172c-1.562-1.562-1.562-4.092,0-5.654l11.31-11.311      c1.562-1.562,4.093-1.562,5.655,0c1.562,1.562,1.562,4.093,0,5.655l-11.31,11.31      C158.497,330.878,157.474,331.269,156.451,331.269z"/>
			</g>
		</g>
		<g>
			<g>
				<path fill="#3A3847" d="M201.7,342.579c-0.766,0-1.539-0.219-2.218-0.672l-33.939-22.62c-1.835-1.227-2.335-3.711-1.109-5.546      c1.234-1.844,3.718-2.328,5.546-1.109l33.939,22.621c1.835,1.227,2.335,3.71,1.109,5.545      C204.254,341.954,202.989,342.579,201.7,342.579z"/>
			</g>
		</g>
		<g>
			<g>
				<path fill="#3A3847" d="M207.355,336.924c-1.023,0-2.046-0.39-2.827-1.171c-1.562-1.562-1.562-4.094,0-5.656l11.311-11.31      c1.562-1.562,4.093-1.562,5.655,0c1.562,1.562,1.562,4.093,0,5.655l-11.311,11.311      C209.402,336.534,208.378,336.924,207.355,336.924z"/>
			</g>
		</g>
		<g>
			<g>
				<path fill="#3A3847" d="M173.417,314.304c-1.023,0-2.047-0.391-2.828-1.172c-1.562-1.562-1.562-4.094,0-5.655l11.311-11.311      c1.562-1.562,4.093-1.562,5.655,0s1.562,4.093,0,5.655l-11.311,11.311C175.462,313.913,174.439,314.304,173.417,314.304z"/>
			</g>
		</g>
		<g>
			<g>
				<path fill="#3A3847" d="M218.666,325.614c-0.766,0-1.539-0.219-2.218-0.672l-33.939-22.621      c-1.836-1.227-2.335-3.711-1.109-5.546c1.234-1.844,3.726-2.32,5.546-1.109l33.939,22.621c1.835,1.226,2.335,3.71,1.109,5.546      C221.22,324.989,219.955,325.614,218.666,325.614z"/>
			</g>
		</g>
		<g>
			<g>
				<path fill="#3A3847" d="M224.321,319.958c-1.023,0-2.046-0.391-2.827-1.171c-1.562-1.562-1.562-4.093,0-5.655l11.31-11.311      c1.562-1.562,4.093-1.562,5.655,0s1.562,4.093,0,5.655l-11.311,11.311C226.368,319.567,225.344,319.958,224.321,319.958z"/>
			</g>
		</g>
		<g>
			<g>
				<path fill="#3A3847" d="M190.382,297.338c-1.023,0-2.046-0.391-2.828-1.172c-1.562-1.562-1.562-4.093,0-5.655l11.318-11.311      c1.562-1.562,4.093-1.562,5.655,0c1.562,1.562,1.562,4.094,0,5.655l-11.318,11.311      C192.428,296.947,191.405,297.338,190.382,297.338z"/>
			</g>
		</g>
		<g>
			<g>
				<path fill="#3A3847" d="M235.631,308.648c-0.766,0-1.539-0.219-2.218-0.672l-33.931-22.621c-1.836-1.227-2.336-3.71-1.109-5.546      c1.234-1.844,3.718-2.328,5.546-1.109l33.931,22.621c1.835,1.227,2.335,3.71,1.109,5.546      C238.186,308.023,236.92,308.648,235.631,308.648z"/>
			</g>
		</g>
		<g>
			<g>
				<path fill="#3A3847" d="M241.287,302.993c-1.023,0-2.047-0.391-2.828-1.172c-1.562-1.562-1.562-4.093,0-5.655l5.655-5.655      c1.562-1.562,4.093-1.562,5.655,0c1.562,1.562,1.562,4.093,0,5.655l-5.655,5.655      C243.333,302.603,242.31,302.993,241.287,302.993z"/>
			</g>
		</g>
		<g>
			<g>
				<path fill="#3A3847" d="M207.355,280.364c-1.023,0-2.046-0.391-2.827-1.172c-1.562-1.562-1.562-4.093,0-5.655l11.311-11.306      c1.562-1.562,4.093-1.562,5.655,0c1.562,1.562,1.562,4.089,0,5.65l-11.311,11.311      C209.402,279.974,208.378,280.364,207.355,280.364z"/>
			</g>
		</g>
		<g>
			<g>
				<path fill="#3A3847" d="M32.021,495.965c-4.093,0-8.194-1.562-11.311-4.679c-6.233-6.233-6.233-16.388,0-22.621      c1.562-1.562,4.093-1.562,5.655,0c1.562,1.562,1.562,4.094,0,5.655c-3.117,3.117-3.117,8.194,0,11.311      c3.125,3.124,8.186,3.124,11.311,0c1.562-1.562,4.093-1.562,5.655,0c1.562,1.562,1.562,4.093,0,5.655      C40.214,494.403,36.114,495.965,32.021,495.965z"/>
			</g>
		</g>
	</g>
</g>
</svg>
